<svg width="512" height="512" viewBox="0 0 512 512" aria-hidden="true" focusable="false" role="img" xmlns="http://www.w3.org/2000/svg"><path d="M48.971,239.029c-9.373,9.373 -9.373,24.569 -0,33.942c39.485,39.485 137.607,137.607 183.13,183.13c4.003,4.003 10.025,5.201 15.257,3.034c5.231,-2.167 8.642,-7.272 8.642,-12.934c0,-42.564 0,-110.201 0,-110.201l180.036,0c3.173,0 6.216,-1.26 8.46,-3.504c2.244,-2.244 3.504,-5.287 3.504,-8.46l0,-136.072c0,-3.173 -1.26,-6.216 -3.504,-8.46c-2.244,-2.244 -5.287,-3.504 -8.46,-3.504l-180.036,0l0,-110.201c-0,-5.662 -3.411,-10.767 -8.642,-12.934c-5.232,-2.167 -11.254,-0.969 -15.257,3.034c-45.523,45.523 -143.645,143.645 -183.13,183.13Z"/></svg>
